<svg width="24" height="24" viewBox="0 0 24 24" fill="none" xmlns="http://www.w3.org/2000/svg">
<path fill-rule="evenodd" clip-rule="evenodd" d="M17.3949 2.29203C17.5212 2.17432 17.6225 2.03238 17.6928 1.87467C17.763 1.71695 17.8008 1.5467 17.8039 1.37407C17.8069 1.20144 17.7752 1.02996 17.7105 0.869864C17.6458 0.70977 17.5496 0.56434 17.4275 0.442251C17.3054 0.320162 17.16 0.223914 16.9999 0.159249C16.8398 0.0945846 16.6683 0.062828 16.4957 0.0658739C16.3231 0.0689198 16.1528 0.106706 15.9951 0.176978C15.8374 0.24725 15.6954 0.348568 15.5777 0.474888L13.0063 3.04632C12.88 3.16402 12.7787 3.30597 12.7084 3.46368C12.6381 3.62139 12.6003 3.79164 12.5973 3.96428C12.5942 4.13691 12.626 4.30839 12.6907 4.46848C12.7553 4.62858 12.8516 4.77401 12.9737 4.8961C13.0957 5.01819 13.2412 5.11443 13.4013 5.1791C13.5614 5.24376 13.7328 5.27552 13.9055 5.27247C14.0781 5.26943 14.2484 5.23164 14.4061 5.16137C14.5638 5.0911 14.7057 4.98978 14.8234 4.86346L17.3949 2.29203ZM14.7583 6.44746C15.905 6.22963 17.0913 6.38173 18.146 6.8818C19.2006 7.38187 20.0692 8.20406 20.6263 9.22974C20.6868 9.34088 20.7219 9.46403 20.7292 9.59036C20.7365 9.71669 20.7157 9.84307 20.6683 9.96041C20.621 10.0777 20.5482 10.1831 20.4553 10.269C20.3624 10.3549 20.2516 10.4192 20.1309 10.4572C19.499 10.6568 18.947 11.0523 18.5547 11.5863C18.1624 12.1204 17.9502 12.7654 17.9486 13.428V13.4417C17.9355 14.2013 18.2011 14.9392 18.6951 15.5163C19.1891 16.0934 19.8773 16.4695 20.6297 16.5737C20.7495 16.5902 20.8644 16.6319 20.9669 16.6959C21.0694 16.7599 21.1572 16.8449 21.2246 16.9453C21.2919 17.0457 21.3373 17.1592 21.3577 17.2783C21.378 17.3974 21.373 17.5195 21.3429 17.6366C20.8364 19.6135 19.8073 21.4177 18.3634 22.86C17.6315 23.5081 16.6943 23.8769 15.717 23.9014C14.7397 23.9259 13.7851 23.6044 13.0217 22.9937C12.8069 22.8387 12.5484 22.7558 12.2835 22.757C12.0185 22.7583 11.7608 22.8435 11.5474 23.0006C10.7479 23.6038 9.75898 23.9014 8.75929 23.8394C7.75961 23.7775 6.815 23.3602 6.09601 22.6629C4.23262 20.6907 3.06477 18.1636 2.77029 15.4663C2.41351 13.4516 2.74947 11.3754 3.72344 9.57603C4.08914 8.85935 4.60009 8.22669 5.22375 7.71834C5.84741 7.21 6.5701 6.83711 7.3458 6.62343C8.1215 6.40975 8.9332 6.35996 9.72919 6.47724C10.5252 6.59452 11.288 6.87629 11.9691 7.3046C12.077 7.36447 12.1981 7.39646 12.3214 7.39766C12.4448 7.39885 12.5665 7.36922 12.6754 7.31146C13.3026 6.88277 14.0118 6.58859 14.7583 6.44746Z" fill="white"/>
</svg>
