<svg width="24" height="24" viewBox="0 0 24 24" fill="none" xmlns="http://www.w3.org/2000/svg">
<path d="M12 1.28564H7.78971C5.88857 1.28564 4.34743 2.82679 4.34743 4.72964V4.72793C4.34743 6.63079 5.88686 8.17364 7.78971 8.17364H12M12 1.28564V8.17364M12 1.28564H16.2103C18.1114 1.28564 19.6526 2.82679 19.6526 4.72964V4.72793C19.6526 6.63079 18.1131 8.17364 16.2103 8.17364H12" stroke="white" stroke-width="2" stroke-linecap="round" stroke-linejoin="round"/>
<path d="M19.6526 11.9999C19.6526 11.4974 19.5536 10.9998 19.3613 10.5356C19.169 10.0714 18.8872 9.64958 18.5319 9.29428C18.1766 8.93897 17.7548 8.65713 17.2905 8.46484C16.8263 8.27255 16.3288 8.17358 15.8263 8.17358C15.3238 8.17358 14.8263 8.27255 14.362 8.46484C13.8978 8.65713 13.476 8.93897 13.1207 9.29428C12.7654 9.64958 12.4835 10.0714 12.2913 10.5356C12.099 10.9998 12 11.4974 12 11.9999C12 13.0147 12.4031 13.9879 13.1207 14.7055C13.8383 15.423 14.8115 15.8262 15.8263 15.8262C16.8411 15.8262 17.8143 15.423 18.5319 14.7055C19.2494 13.9879 19.6526 13.0147 19.6526 11.9999ZM4.34743 19.2702C4.34743 17.3673 5.88857 15.8262 7.78971 15.8262H12V18.8879C12 21.0016 10.2857 22.7142 8.17371 22.7142H7.78971C5.88686 22.7142 4.34743 21.1713 4.34743 19.2702Z" stroke="white" stroke-width="2" stroke-linecap="round" stroke-linejoin="round"/>
<path d="M4.34743 11.9999C4.34743 9.88616 6.06 8.17358 8.17371 8.17358H12V15.8262H8.17371C6.06 15.8262 4.34743 14.1119 4.34743 11.9999Z" stroke="white" stroke-width="2" stroke-linecap="round" stroke-linejoin="round"/>
</svg>
