<svg width="24" height="24" viewBox="0 0 24 24" fill="none" xmlns="http://www.w3.org/2000/svg">
<path fill-rule="evenodd" clip-rule="evenodd" d="M0.603424 2.23716C0.603424 2.1943 0.605138 2.15144 0.608567 2.11201L10.26 11.7617L0.608567 21.4132C0.605191 21.3715 0.603475 21.3298 0.603424 21.288V2.23716ZM2.76 22.8977C2.93142 22.8652 3.10285 22.8069 3.27085 22.7229L15.1731 16.6766L12.0771 13.5806L2.76 22.8977ZM13.896 11.7617L17.5851 15.4509L22.0183 13.1983C23.2509 12.5726 23.2509 10.9526 22.0183 10.3269L17.5834 8.0743L13.896 11.7617ZM15.1731 6.84858L3.27085 0.802299C3.10964 0.720282 2.93766 0.661417 2.76 0.627441L12.0771 9.94287L15.1731 6.84858Z" fill="white"/>
</svg>
