<svg width="24" height="24" viewBox="0 0 24 24" fill="none" xmlns="http://www.w3.org/2000/svg">
<g clip-path="url(#clip0_1_1091)">
<path fill-rule="evenodd" clip-rule="evenodd" d="M4.99372 4.04914C5.43943 3.58971 5.68457 2.976 5.67943 2.33829C5.65641 1.71929 5.39779 1.13247 4.95646 0.697826C4.51513 0.263185 3.92442 0.0135605 3.30515 0C2.68399 0.0133046 2.09114 0.262291 1.64675 0.696489C1.20237 1.13069 0.939705 1.71761 0.912003 2.33829C0.920813 2.97539 1.17411 3.58476 1.61952 4.04038C2.06494 4.496 2.6684 4.76304 3.30515 4.78629C3.94284 4.7713 4.54918 4.5066 4.99372 4.04914ZM2.86286 7.93714C1.85657 7.91486 1.17086 7.89943 1.17086 9.13029V22.8309C1.17086 24.036 1.82572 24.012 2.76857 23.976C2.94 23.9691 3.12 23.9623 3.30686 23.9623C3.49543 23.9623 3.67543 23.9691 3.84515 23.976C4.78457 24.0103 5.42572 24.036 5.42572 22.8309V9.132C5.42572 7.90114 4.75372 7.91486 3.75257 7.93886C3.45604 7.94566 3.15939 7.94394 2.86286 7.93714ZM9.864 7.96286C9.408 8.05371 9.11486 8.34514 9.11486 9.13029V22.8309C9.11486 24.036 9.744 24.012 10.6886 23.976C10.86 23.9691 11.0434 23.9623 11.2337 23.9623C11.4257 23.9623 11.6074 23.9691 11.7806 23.976C12.7303 24.0103 13.3714 24.036 13.3714 22.8309V15.5246C13.3349 15.1511 13.3781 14.7741 13.4982 14.4186C13.6184 14.0631 13.8127 13.7372 14.0683 13.4625C14.3239 13.1877 14.635 12.9704 14.9809 12.825C15.3268 12.6796 15.6997 12.6093 16.0749 12.6189C16.4518 12.5963 16.8292 12.6552 17.1814 12.7915C17.5335 12.9278 17.8522 13.1384 18.1157 13.4089C18.3792 13.6794 18.5813 14.0035 18.7084 14.3591C18.8355 14.7147 18.8844 15.0935 18.852 15.4697V22.7743C18.852 23.9811 19.4794 23.9571 20.424 23.9211C20.5954 23.9143 20.7789 23.9074 20.9691 23.9074C21.1611 23.9074 21.3429 23.9143 21.516 23.9211C22.4606 23.9554 23.088 23.9811 23.088 22.776V13.4229C23.1231 12.6549 22.9962 11.8882 22.7156 11.1726C22.4349 10.457 22.0067 9.80843 21.4589 9.26917C20.911 8.72991 20.2558 8.31201 19.5358 8.04264C18.8159 7.77327 18.0473 7.65848 17.28 7.70571C16.4986 7.63462 15.7119 7.76531 14.9955 8.08528C14.279 8.40525 13.6566 8.90378 13.188 9.53314C13.2069 8.85771 12.9874 7.96286 12.4406 7.96286C12.2829 7.96286 12.0411 7.95429 11.7669 7.94571C11.0811 7.92514 10.1897 7.89771 9.864 7.96286Z" fill="white"/>
</g>
<defs>
<clipPath id="clip0_1_1091">
<rect width="24" height="24" fill="white"/>
</clipPath>
</defs>
</svg>
