<svg width="142" height="40" viewBox="0 0 142 40" fill="none" xmlns="http://www.w3.org/2000/svg">
<path fill-rule="evenodd" clip-rule="evenodd" d="M18.3333 38.3333C28.4586 38.3333 36.6667 30.1252 36.6667 19.9999C36.6667 9.87475 28.4586 1.66663 18.3333 1.66663C8.20809 1.66663 0 9.87475 0 19.9999C0 30.1252 8.20809 38.3333 18.3333 38.3333ZM24.0527 10.2071C24.3311 9.21818 23.3714 8.63342 22.495 9.25782L10.2604 17.9737C9.30986 18.6509 9.45937 19.9999 10.4849 19.9999H13.7067V19.975H19.9856L14.8694 21.7802L12.614 29.7929C12.3356 30.7818 13.2952 31.3665 14.1717 30.7421L26.4063 22.0262C27.3568 21.3491 27.2072 19.9999 26.1817 19.9999H21.2961L24.0527 10.2071Z" fill="#155EEF"/>
<path d="M46.15 28.2577V25.3577H48.45V13.6577H46.15V10.7577H55.15C56.2166 10.7577 57.1416 10.941 57.925 11.3077C58.725 11.6577 59.3416 12.166 59.775 12.8327C60.225 13.4827 60.45 14.266 60.45 15.1827V15.4327C60.45 16.2327 60.3 16.891 60 17.4077C59.7 17.9077 59.3416 18.2994 58.925 18.5827C58.525 18.8494 58.1416 19.041 57.775 19.1577V19.6077C58.1416 19.7077 58.5416 19.8994 58.975 20.1827C59.4083 20.4494 59.775 20.841 60.075 21.3577C60.3916 21.8744 60.55 22.5494 60.55 23.3827V23.6327C60.55 24.5994 60.325 25.4327 59.875 26.1327C59.425 26.8161 58.8 27.341 58 27.7077C57.2166 28.0744 56.3 28.2577 55.25 28.2577H46.15ZM51.75 25.2577H54.85C55.5666 25.2577 56.1416 25.0827 56.575 24.7327C57.025 24.3827 57.25 23.8827 57.25 23.2327V22.9827C57.25 22.3327 57.0333 21.8327 56.6 21.4827C56.1666 21.1327 55.5833 20.9577 54.85 20.9577H51.75V25.2577ZM51.75 17.9577H54.8C55.4833 17.9577 56.0416 17.7827 56.475 17.4327C56.925 17.0827 57.15 16.5994 57.15 15.9827V15.7327C57.15 15.0994 56.9333 14.616 56.5 14.2827C56.0666 13.9327 55.5 13.7577 54.8 13.7577H51.75V17.9577Z" fill="#0C0C0C"/>
<path d="M68.0015 28.6077C66.7682 28.6077 65.6599 28.3577 64.6765 27.8577C63.6932 27.3577 62.9182 26.6327 62.3515 25.6827C61.7849 24.7327 61.5015 23.591 61.5015 22.2577V21.8577C61.5015 20.5244 61.7849 19.3827 62.3515 18.4327C62.9182 17.4827 63.6932 16.7577 64.6765 16.2577C65.6599 15.7577 66.7682 15.5077 68.0015 15.5077C69.2349 15.5077 70.3432 15.7577 71.3265 16.2577C72.3099 16.7577 73.0849 17.4827 73.6515 18.4327C74.2182 19.3827 74.5015 20.5244 74.5015 21.8577V22.2577C74.5015 23.591 74.2182 24.7327 73.6515 25.6827C73.0849 26.6327 72.3099 27.3577 71.3265 27.8577C70.3432 28.3577 69.2349 28.6077 68.0015 28.6077ZM68.0015 25.8077C68.9682 25.8077 69.7682 25.4994 70.4015 24.8827C71.0349 24.2494 71.3515 23.3494 71.3515 22.1827V21.9327C71.3515 20.766 71.0349 19.8744 70.4015 19.2577C69.7849 18.6244 68.9849 18.3077 68.0015 18.3077C67.0349 18.3077 66.2349 18.6244 65.6015 19.2577C64.9682 19.8744 64.6515 20.766 64.6515 21.9327V22.1827C64.6515 23.3494 64.9682 24.2494 65.6015 24.8827C66.2349 25.4994 67.0349 25.8077 68.0015 25.8077Z" fill="#0C0C0C"/>
<path d="M76.1591 28.2577V10.7577H79.3091V28.2577H76.1591Z" fill="#0C0C0C"/>
<path d="M86.2998 28.2577C85.4831 28.2577 84.8164 28.0077 84.2998 27.5077C83.7998 26.991 83.5498 26.3077 83.5498 25.4577V18.4577H80.4498V15.8577H83.5498V12.0077H86.6998V15.8577H90.0998V18.4577H86.6998V24.9077C86.6998 25.4077 86.9331 25.6577 87.3998 25.6577H89.7998V28.2577H86.2998Z" fill="#0C0C0C"/>
<path d="M96.8511 28.6077C95.2345 28.6077 93.9095 28.2577 92.8761 27.5577C91.8428 26.8577 91.2178 25.8577 91.0011 24.5577L93.9011 23.8077C94.0178 24.391 94.2095 24.8494 94.4761 25.1827C94.7595 25.516 95.1011 25.7577 95.5011 25.9077C95.9178 26.041 96.3678 26.1077 96.8511 26.1077C97.5845 26.1077 98.1261 25.9827 98.4761 25.7327C98.8261 25.466 99.0011 25.141 99.0011 24.7577C99.0011 24.3744 98.8345 24.0827 98.5011 23.8827C98.1678 23.666 97.6345 23.491 96.9011 23.3577L96.2011 23.2327C95.3345 23.066 94.5428 22.841 93.8261 22.5577C93.1095 22.2577 92.5345 21.8494 92.1011 21.3327C91.6678 20.816 91.4511 20.1494 91.4511 19.3327C91.4511 18.0994 91.9011 17.1577 92.8011 16.5077C93.7011 15.841 94.8845 15.5077 96.3511 15.5077C97.7345 15.5077 98.8845 15.816 99.8011 16.4327C100.718 17.0494 101.318 17.8577 101.601 18.8577L98.6761 19.7577C98.5428 19.1244 98.2678 18.6744 97.8511 18.4077C97.4511 18.141 96.9511 18.0077 96.3511 18.0077C95.7511 18.0077 95.2928 18.116 94.9761 18.3327C94.6595 18.5327 94.5011 18.816 94.5011 19.1827C94.5011 19.5827 94.6678 19.8827 95.0011 20.0827C95.3345 20.266 95.7845 20.4077 96.3511 20.5077L97.0511 20.6327C97.9845 20.7994 98.8261 21.0244 99.5761 21.3077C100.343 21.5744 100.943 21.966 101.376 22.4827C101.826 22.9827 102.051 23.6661 102.051 24.5327C102.051 25.8327 101.576 26.841 100.626 27.5577C99.6928 28.2577 98.4345 28.6077 96.8511 28.6077Z" fill="#0C0C0C"/>
<path d="M103.561 28.2577V10.7577H106.711V17.3827H107.161C107.295 17.116 107.503 16.8494 107.786 16.5827C108.07 16.316 108.445 16.0994 108.911 15.9327C109.395 15.7494 110.003 15.6577 110.736 15.6577C111.703 15.6577 112.545 15.8827 113.261 16.3327C113.995 16.766 114.561 17.3744 114.961 18.1577C115.361 18.9244 115.561 19.8244 115.561 20.8577V28.2577H112.411V21.1077C112.411 20.1744 112.178 19.4744 111.711 19.0077C111.261 18.541 110.611 18.3077 109.761 18.3077C108.795 18.3077 108.045 18.6327 107.511 19.2827C106.978 19.916 106.711 20.8077 106.711 21.9577V28.2577H103.561Z" fill="#0C0C0C"/>
<path d="M117.717 28.2577V15.8577H120.867V28.2577H117.717ZM119.292 14.4077C118.725 14.4077 118.242 14.2244 117.842 13.8577C117.458 13.491 117.267 13.0077 117.267 12.4077C117.267 11.8077 117.458 11.3244 117.842 10.9577C118.242 10.591 118.725 10.4077 119.292 10.4077C119.875 10.4077 120.358 10.591 120.742 10.9577C121.125 11.3244 121.317 11.8077 121.317 12.4077C121.317 13.0077 121.125 13.491 120.742 13.8577C120.358 14.2244 119.875 14.4077 119.292 14.4077Z" fill="#0C0C0C"/>
<path d="M125.157 28.2577V18.4577H122.007V15.8577H125.157V13.5577C125.157 12.7077 125.407 12.0327 125.907 11.5327C126.424 11.016 127.091 10.7577 127.907 10.7577H131.157V13.3577H129.007C128.541 13.3577 128.307 13.6077 128.307 14.1077V15.8577H131.557V18.4577H128.307V28.2577H125.157Z" fill="#0C0C0C"/>
<path d="M137.252 28.2577C136.435 28.2577 135.769 28.0077 135.252 27.5077C134.752 26.991 134.502 26.3077 134.502 25.4577V18.4577H131.402V15.8577H134.502V12.0077H137.652V15.8577H141.052V18.4577H137.652V24.9077C137.652 25.4077 137.885 25.6577 138.352 25.6577H140.752V28.2577H137.252Z" fill="#0C0C0C"/>
</svg>
