<svg width="169" height="39" viewBox="0 0 169 39" fill="none" xmlns="http://www.w3.org/2000/svg">
<path d="M19.9658 21.6667C19.5423 16.5337 15.2422 12.5 10 12.5C4.47715 12.5 0 16.9772 0 22.5C0 28.0228 4.47715 32.5 10 32.5H25V21.6667H19.9658Z" fill="#528BFF"/>
<ellipse cx="24.1666" cy="20" rx="12.5" ry="12.5" fill="#7839EE"/>
<path d="M44.08 20.1667C44.08 18.5022 44.3988 17.0478 45.0366 15.8033C45.69 14.5433 46.6155 13.5711 47.8133 12.8867C49.0266 12.2022 50.45 11.86 52.0833 11.86C53.3588 11.86 54.5022 12.1089 55.5133 12.6067C56.5244 13.1044 57.3411 13.8044 57.9633 14.7067C58.5855 15.6089 58.9588 16.6511 59.0833 17.8333H55.5833C55.3811 16.9 54.9533 16.1689 54.3 15.64C53.6622 15.0955 52.8611 14.8233 51.8966 14.8233C50.59 14.8233 49.5555 15.3133 48.7933 16.2933C48.0311 17.2733 47.65 18.5644 47.65 20.1667C47.65 21.7533 48.0311 23.0444 48.7933 24.04C49.5555 25.02 50.59 25.51 51.8966 25.51C52.8611 25.51 53.6622 25.2455 54.3 24.7167C54.9533 24.1722 55.3811 23.4333 55.5833 22.5H59.0833C58.9588 23.6822 58.5855 24.7244 57.9633 25.6267C57.3411 26.5289 56.5244 27.2289 55.5133 27.7267C54.5022 28.2244 53.3588 28.4733 52.0833 28.4733C50.45 28.4733 49.0266 28.1311 47.8133 27.4467C46.6155 26.7622 45.69 25.7978 45.0366 24.5533C44.3988 23.2933 44.08 21.8311 44.08 20.1667Z" fill="#0C0C0C"/>
<path d="M59.9268 12H63.2168V28.3333H59.9268V12Z" fill="#0C0C0C"/>
<path d="M70.4328 28.4733C69.1728 28.4733 68.0605 28.2244 67.0961 27.7267C66.1472 27.2133 65.4083 26.49 64.8794 25.5567C64.3661 24.6233 64.1094 23.55 64.1094 22.3367C64.1094 21.1233 64.3661 20.05 64.8794 19.1167C65.4083 18.1833 66.1472 17.4678 67.0961 16.97C68.0605 16.4567 69.1728 16.2 70.4328 16.2C71.6928 16.2 72.7972 16.4567 73.7461 16.97C74.7105 17.4678 75.4494 18.1833 75.9628 19.1167C76.4917 20.05 76.7561 21.1233 76.7561 22.3367C76.7561 23.5655 76.4917 24.6467 75.9628 25.58C75.4494 26.4978 74.7105 27.2133 73.7461 27.7267C72.7972 28.2244 71.6928 28.4733 70.4328 28.4733ZM70.4328 25.79C71.3505 25.79 72.0739 25.4711 72.6028 24.8333C73.1472 24.1955 73.4194 23.3633 73.4194 22.3367C73.4194 21.31 73.1472 20.4778 72.6028 19.84C72.0739 19.2022 71.3505 18.8833 70.4328 18.8833C69.5305 18.8833 68.8072 19.2022 68.2628 19.84C67.7339 20.4778 67.4694 21.31 67.4694 22.3367C67.4694 23.3633 67.7339 24.1955 68.2628 24.8333C68.8072 25.4711 69.5305 25.79 70.4328 25.79Z" fill="#0C0C0C"/>
<path d="M88.927 16.34V28.3333H86.0103L85.707 26.8867C85.287 27.3844 84.797 27.7733 84.237 28.0533C83.677 28.3333 82.9925 28.4733 82.1837 28.4733C80.7837 28.4733 79.6403 28.0455 78.7536 27.19C77.867 26.3189 77.4236 24.8722 77.4236 22.85V16.34H80.7137V22.4533C80.7137 23.5422 80.9003 24.3667 81.2737 24.9267C81.6625 25.4711 82.2536 25.7433 83.047 25.7433C83.8714 25.7433 84.5092 25.44 84.9603 24.8333C85.4114 24.2111 85.637 23.3478 85.637 22.2433V16.34H88.927Z" fill="#0C0C0C"/>
<path d="M102.274 12V28.3333H99.4044L99.0777 26.6767C98.1599 27.8744 96.9155 28.4733 95.3444 28.4733C94.2866 28.4733 93.3377 28.2244 92.4977 27.7267C91.6577 27.2133 90.9966 26.49 90.5144 25.5567C90.0477 24.6233 89.8144 23.5422 89.8144 22.3133C89.8144 21.1 90.0477 20.0344 90.5144 19.1167C90.9966 18.1833 91.6577 17.4678 92.4977 16.97C93.3533 16.4567 94.3099 16.2 95.3677 16.2C96.9233 16.2 98.1288 16.7444 98.9844 17.8333V12H102.274ZM96.1144 25.79C97.001 25.79 97.7088 25.4789 98.2377 24.8567C98.7666 24.2189 99.031 23.3867 99.031 22.36C99.031 21.3178 98.7666 20.4778 98.2377 19.84C97.7088 19.2022 97.001 18.8833 96.1144 18.8833C95.2277 18.8833 94.5122 19.2022 93.9677 19.84C93.4388 20.4778 93.1744 21.31 93.1744 22.3367C93.1744 23.3633 93.4388 24.1955 93.9677 24.8333C94.5122 25.4711 95.2277 25.79 96.1144 25.79Z" fill="#0C0C0C"/>
<path d="M102.701 12L106.318 11.9767L109.328 23.9233L112.525 12H115.675L118.778 23.9233L121.858 12H125.405L120.878 28.3333H116.841L114.018 17.4833L111.265 28.3333H107.228L102.701 12Z" fill="#0C0C0C"/>
<path d="M136.383 25.5567V28.3333H134.703C133.194 28.3333 132.455 27.68 132.486 26.3733C132.051 27.0578 131.514 27.5789 130.876 27.9367C130.239 28.2944 129.469 28.4733 128.566 28.4733C127.229 28.4733 126.148 28.17 125.323 27.5633C124.514 26.9411 124.11 26.07 124.11 24.95C124.11 23.6744 124.576 22.6944 125.51 22.01C126.459 21.31 127.828 20.96 129.616 20.96H131.996V20.3767C131.996 19.8322 131.794 19.4044 131.39 19.0933C130.985 18.7667 130.441 18.6033 129.756 18.6033C129.15 18.6033 128.652 18.7355 128.263 19C127.874 19.2644 127.641 19.6222 127.563 20.0733H124.39C124.499 18.8444 125.043 17.8955 126.023 17.2267C127.003 16.5422 128.302 16.2 129.92 16.2C131.615 16.2 132.922 16.5733 133.84 17.32C134.773 18.0667 135.24 19.1478 135.24 20.5633V24.7867C135.24 25.0822 135.302 25.2844 135.426 25.3933C135.551 25.5022 135.745 25.5567 136.01 25.5567H136.383ZM131.996 23.1533H129.593C128.909 23.1533 128.372 23.2933 127.983 23.5733C127.61 23.8378 127.423 24.2189 127.423 24.7167C127.423 25.1367 127.579 25.4711 127.89 25.72C128.216 25.9689 128.652 26.0933 129.196 26.0933C130.052 26.0933 130.729 25.8522 131.226 25.37C131.724 24.8722 131.981 24.2111 131.996 23.3867V23.1533Z" fill="#0C0C0C"/>
<path d="M137.493 19.1167H135.509V16.34H137.493V12.98H140.783V16.34H143.513V19.1167H140.783V24.3667C140.783 24.7867 140.868 25.09 141.039 25.2767C141.226 25.4633 141.529 25.5567 141.949 25.5567H143.653V28.3333H140.923C138.636 28.3333 137.493 27.19 137.493 24.9033V19.1167Z" fill="#0C0C0C"/>
<path d="M155.451 23.7833C155.233 25.2455 154.611 26.3967 153.584 27.2367C152.573 28.0611 151.258 28.4733 149.641 28.4733C148.396 28.4733 147.307 28.2244 146.374 27.7267C145.441 27.2133 144.717 26.49 144.204 25.5567C143.706 24.6233 143.457 23.55 143.457 22.3367C143.457 21.1078 143.706 20.0344 144.204 19.1167C144.717 18.1833 145.441 17.4678 146.374 16.97C147.323 16.4567 148.42 16.2 149.664 16.2C151.266 16.2 152.573 16.6122 153.584 17.4367C154.595 18.2455 155.217 19.3733 155.451 20.82H152.044C151.904 20.2289 151.624 19.7622 151.204 19.42C150.784 19.0622 150.263 18.8833 149.641 18.8833C148.785 18.8833 148.101 19.2022 147.587 19.84C147.074 20.4778 146.817 21.31 146.817 22.3367C146.817 23.3633 147.074 24.1955 147.587 24.8333C148.101 25.4711 148.785 25.79 149.641 25.79C150.278 25.79 150.807 25.6111 151.227 25.2533C151.663 24.8955 151.943 24.4055 152.067 23.7833H155.451Z" fill="#0C0C0C"/>
<path d="M163.135 16.2C164.55 16.2 165.709 16.6355 166.611 17.5067C167.529 18.3778 167.988 19.8167 167.988 21.8233V28.3333H164.698V21.9633C164.698 20.9678 164.496 20.2133 164.091 19.7C163.687 19.1711 163.08 18.9067 162.271 18.9067C161.431 18.9067 160.77 19.1944 160.288 19.77C159.821 20.3455 159.588 21.1467 159.588 22.1733V28.3333H156.298V12H159.588V17.81C160.475 16.7367 161.657 16.2 163.135 16.2Z" fill="#0C0C0C"/>
</svg>
