<svg width="165" height="40" viewBox="0 0 165 40" fill="none" xmlns="http://www.w3.org/2000/svg">
<path d="M30.2555 9.30261C29.8953 8.94242 29.5351 8.58224 29.1749 8.22206C28.0944 7.06947 26.9418 5.91688 25.501 5.19652C23.8442 4.33208 22.0433 4.54818 20.2424 4.54818C17.505 4.54818 10.6615 4.54818 6.62744 4.54818L9.36484 8.22206C14.3354 8.22206 22.1153 8.22206 25.7172 8.22206C27.2299 8.22206 28.5266 8.5102 29.7512 9.30261C29.9673 9.37464 30.1834 9.37464 30.2555 9.30261Z" fill="#66C61C"/>
<path d="M33.281 15.2097C32.9208 14.8495 32.5607 14.4893 32.2005 14.1292C31.1199 12.9766 29.9673 11.824 28.5266 11.1036C26.8698 10.2392 25.0689 10.4553 23.2679 10.4553C20.8907 10.4553 15.1998 10.4553 11.1658 10.4553L13.9032 14.1292C18.8017 14.1292 25.5011 14.1292 28.8148 14.1292C30.3275 14.1292 31.6242 14.4173 32.8488 15.2097C32.9929 15.2817 33.137 15.2817 33.281 15.2097Z" fill="#4CA30D"/>
<path d="M36.6667 20.9724C36.3065 20.6122 35.9463 20.252 35.5861 19.8919C34.5056 18.7393 33.353 17.5867 31.9123 16.8663C30.2554 16.0019 28.4545 16.218 26.6536 16.218C24.4204 16.218 19.522 16.218 15.5599 16.218L18.2973 19.8919C23.0517 19.8919 29.1028 19.8919 32.1284 19.8919C33.6411 19.8919 34.9378 20.18 36.1624 20.9724C36.3785 21.0444 36.5226 21.1165 36.6667 20.9724Z" fill="#3B7C0F"/>
<path d="M6.33923 30.6973C6.69942 31.0575 7.0596 31.4177 7.41978 31.7779C8.50033 32.9305 9.65291 34.083 11.0936 34.8034C12.7505 35.6679 14.5514 35.4517 16.3523 35.4517H29.9673L27.2299 31.7779C22.2593 31.7779 14.4794 31.7779 10.8775 31.7779C9.36478 31.7779 8.06811 31.4897 6.84349 30.6973C6.62738 30.6253 6.48331 30.6253 6.33923 30.6973Z" fill="#66C61C"/>
<path d="M3.31384 24.7905C3.67403 25.1507 4.03421 25.5108 4.39439 25.871C5.47494 27.0236 6.62752 28.1762 8.06826 28.8966C9.7251 29.761 11.526 29.5449 13.3269 29.5449H25.4291L22.6917 25.871C17.7932 25.871 11.0938 25.871 7.78011 25.871C6.26734 25.871 4.97068 25.5829 3.74606 24.7905C3.60198 24.7184 3.45792 24.7184 3.31384 24.7905Z" fill="#4CA30D"/>
<path d="M0 18.9554C0.360183 19.3156 0.720367 19.6758 1.08055 20.0359C2.1611 21.1885 3.31369 22.3411 4.75442 23.0615C6.41127 23.9259 8.21218 23.7098 10.0131 23.7098H21.1067L18.3694 20.0359C13.6149 20.0359 7.56385 20.0359 4.53831 20.0359C3.02554 20.0359 1.72888 19.7478 0.504255 18.9554C0.288144 18.8834 0.144073 18.8834 0 18.9554Z" fill="#3B7C0F"/>
<path d="M44.9434 11.6733V28.3333H48.6067V21.45H55.5834V18.6033H48.6067V14.7533H56.6567V11.6733H44.9434Z" fill="#0C0C0C"/>
<path d="M65.8447 21.0067H60.4547C60.4703 20.7733 60.517 20.5089 60.5947 20.2133C60.6881 19.9178 60.8358 19.6378 61.0381 19.3733C61.2558 19.1089 61.5358 18.8911 61.8781 18.72C62.2358 18.5333 62.6792 18.44 63.2081 18.44C64.017 18.44 64.6159 18.6578 65.0047 19.0933C65.4092 19.5289 65.6892 20.1667 65.8447 21.0067ZM60.4547 23.1067H69.1581C69.2203 22.1733 69.1425 21.2789 68.9247 20.4233C68.707 19.5678 68.3492 18.8056 67.8514 18.1367C67.3692 17.4678 66.747 16.9389 65.9847 16.55C65.2225 16.1456 64.3281 15.9433 63.3014 15.9433C62.3836 15.9433 61.5436 16.1067 60.7814 16.4333C60.0347 16.76 59.3892 17.2111 58.8447 17.7867C58.3003 18.3467 57.8803 19.0156 57.5847 19.7933C57.2892 20.5711 57.1414 21.4111 57.1414 22.3133C57.1414 23.2467 57.2814 24.1022 57.5614 24.88C57.857 25.6578 58.2692 26.3267 58.7981 26.8867C59.327 27.4467 59.9725 27.8822 60.7347 28.1933C61.497 28.4889 62.3525 28.6367 63.3014 28.6367C64.6703 28.6367 65.837 28.3256 66.8014 27.7033C67.7658 27.0811 68.4814 26.0467 68.9481 24.6H66.0314C65.9225 24.9733 65.627 25.3311 65.1447 25.6733C64.6625 26 64.087 26.1633 63.4181 26.1633C62.4847 26.1633 61.7692 25.9222 61.2714 25.44C60.7736 24.9578 60.5014 24.18 60.4547 23.1067Z" fill="#0C0C0C"/>
<path d="M70.2832 19.98C70.3298 19.2022 70.5243 18.5567 70.8665 18.0433C71.2087 17.53 71.6443 17.1178 72.1732 16.8067C72.7021 16.4956 73.2932 16.2778 73.9465 16.1533C74.6154 16.0133 75.2843 15.9433 75.9532 15.9433C76.5598 15.9433 77.1743 15.99 77.7965 16.0833C78.4187 16.1611 78.9865 16.3245 79.4998 16.5733C80.0132 16.8222 80.4332 17.1722 80.7598 17.6233C81.0865 18.0589 81.2498 18.6422 81.2498 19.3733V25.65C81.2498 26.1945 81.281 26.7156 81.3432 27.2133C81.4054 27.7111 81.5143 28.0845 81.6698 28.3333H78.3098C78.2476 28.1467 78.1932 27.96 78.1465 27.7733C78.1154 27.5711 78.0921 27.3689 78.0765 27.1667C77.5476 27.7111 76.9254 28.0922 76.2098 28.31C75.4943 28.5278 74.7632 28.6367 74.0165 28.6367C73.441 28.6367 72.9043 28.5667 72.4065 28.4267C71.9087 28.2867 71.4732 28.0689 71.0998 27.7733C70.7265 27.4778 70.431 27.1045 70.2132 26.6533C70.011 26.2022 69.9098 25.6656 69.9098 25.0433C69.9098 24.3589 70.0265 23.7989 70.2598 23.3633C70.5087 22.9122 70.8198 22.5545 71.1932 22.29C71.5821 22.0256 72.0176 21.8311 72.4998 21.7067C72.9976 21.5667 73.4954 21.4578 73.9932 21.38C74.491 21.3022 74.981 21.24 75.4632 21.1933C75.9454 21.1467 76.3732 21.0767 76.7465 20.9833C77.1198 20.89 77.4154 20.7578 77.6332 20.5867C77.851 20.4 77.9521 20.1356 77.9365 19.7933C77.9365 19.4356 77.8743 19.1556 77.7498 18.9533C77.641 18.7356 77.4854 18.5722 77.2832 18.4633C77.0965 18.3389 76.871 18.2611 76.6065 18.23C76.3576 18.1833 76.0854 18.16 75.7898 18.16C75.1365 18.16 74.6232 18.3 74.2498 18.58C73.8765 18.86 73.6587 19.3267 73.5965 19.98H70.2832ZM77.9365 22.43C77.7965 22.5545 77.6176 22.6556 77.3998 22.7333C77.1976 22.7956 76.9721 22.85 76.7232 22.8967C76.4898 22.9433 76.241 22.9822 75.9765 23.0133C75.7121 23.0445 75.4476 23.0833 75.1832 23.13C74.9343 23.1767 74.6854 23.2389 74.4365 23.3167C74.2032 23.3945 73.9932 23.5033 73.8065 23.6433C73.6354 23.7678 73.4954 23.9311 73.3865 24.1333C73.2776 24.3356 73.2232 24.5922 73.2232 24.9033C73.2232 25.1989 73.2776 25.4478 73.3865 25.65C73.4954 25.8522 73.6432 26.0156 73.8298 26.14C74.0165 26.2489 74.2343 26.3267 74.4832 26.3733C74.7321 26.42 74.9887 26.4433 75.2532 26.4433C75.9065 26.4433 76.4121 26.3345 76.7698 26.1167C77.1276 25.8989 77.3921 25.6422 77.5632 25.3467C77.7343 25.0356 77.8354 24.7245 77.8665 24.4133C77.9132 24.1022 77.9365 23.8533 77.9365 23.6667V22.43Z" fill="#0C0C0C"/>
<path d="M87.3216 16.27V12.6533H84.0083V16.27H82.0016V18.4867H84.0083V25.6033C84.0083 26.21 84.1094 26.7 84.3116 27.0733C84.5138 27.4467 84.7861 27.7345 85.1283 27.9367C85.4861 28.1389 85.8905 28.2711 86.3416 28.3333C86.8083 28.4111 87.2983 28.45 87.8116 28.45C88.1383 28.45 88.4727 28.4422 88.8149 28.4267C89.1572 28.4111 89.4683 28.38 89.7483 28.3333V25.7667C89.5927 25.7978 89.4294 25.8211 89.2583 25.8367C89.0872 25.8522 88.9083 25.86 88.7216 25.86C88.1616 25.86 87.7883 25.7667 87.6016 25.58C87.4149 25.3933 87.3216 25.02 87.3216 24.46V18.4867H89.7483V16.27H87.3216Z" fill="#0C0C0C"/>
<path d="M90.6247 11.6733V28.3333H93.9381V22.01C93.9381 20.7811 94.1403 19.9022 94.5447 19.3733C94.9492 18.8289 95.6025 18.5567 96.5047 18.5567C97.2981 18.5567 97.8503 18.8056 98.1614 19.3033C98.4725 19.7856 98.6281 20.5245 98.6281 21.52V28.3333H101.941V20.9133C101.941 20.1667 101.871 19.49 101.731 18.8833C101.607 18.2611 101.381 17.74 101.055 17.32C100.728 16.8845 100.277 16.55 99.7014 16.3167C99.1414 16.0678 98.4181 15.9433 97.5314 15.9433C96.9092 15.9433 96.2714 16.1067 95.6181 16.4333C94.9647 16.7445 94.4281 17.25 94.0081 17.95H93.9381V11.6733H90.6247Z" fill="#0C0C0C"/>
<path d="M111.876 21.0067H106.486C106.502 20.7733 106.548 20.5089 106.626 20.2133C106.719 19.9178 106.867 19.6378 107.069 19.3733C107.287 19.1089 107.567 18.8911 107.909 18.72C108.267 18.5333 108.711 18.44 109.239 18.44C110.048 18.44 110.647 18.6578 111.036 19.0933C111.441 19.5289 111.721 20.1667 111.876 21.0067ZM106.486 23.1067H115.189C115.252 22.1733 115.174 21.2789 114.956 20.4233C114.738 19.5678 114.381 18.8056 113.883 18.1367C113.401 17.4678 112.778 16.9389 112.016 16.55C111.254 16.1456 110.359 15.9433 109.333 15.9433C108.415 15.9433 107.575 16.1067 106.813 16.4333C106.066 16.76 105.421 17.2111 104.876 17.7867C104.332 18.3467 103.912 19.0156 103.616 19.7933C103.321 20.5711 103.173 21.4111 103.173 22.3133C103.173 23.2467 103.313 24.1022 103.593 24.88C103.888 25.6578 104.301 26.3267 104.829 26.8867C105.358 27.4467 106.004 27.8822 106.766 28.1933C107.528 28.4889 108.384 28.6367 109.333 28.6367C110.702 28.6367 111.868 28.3256 112.833 27.7033C113.797 27.0811 114.513 26.0467 114.979 24.6H112.063C111.954 24.9733 111.658 25.3311 111.176 25.6733C110.694 26 110.118 26.1633 109.449 26.1633C108.516 26.1633 107.801 25.9222 107.303 25.44C106.805 24.9578 106.533 24.18 106.486 23.1067Z" fill="#0C0C0C"/>
<path d="M116.455 16.27V28.3333H119.768V22.8967C119.768 22.3522 119.822 21.8467 119.931 21.38C120.04 20.9133 120.219 20.5089 120.468 20.1667C120.732 19.8089 121.075 19.5289 121.495 19.3267C121.915 19.1245 122.428 19.0233 123.035 19.0233C123.237 19.0233 123.447 19.0389 123.665 19.07C123.882 19.0856 124.069 19.1089 124.225 19.14V16.06C123.96 15.9822 123.719 15.9433 123.501 15.9433C123.081 15.9433 122.677 16.0056 122.288 16.13C121.899 16.2545 121.533 16.4333 121.191 16.6667C120.849 16.8845 120.546 17.1567 120.281 17.4833C120.017 17.7945 119.807 18.1367 119.651 18.51H119.605V16.27H116.455Z" fill="#0C0C0C"/>
<path d="M128.837 25.2533V14.7533H131.45C132.352 14.7533 133.107 14.8856 133.714 15.15C134.336 15.3989 134.834 15.7645 135.207 16.2467C135.58 16.7289 135.845 17.3122 136 17.9967C136.171 18.6656 136.257 19.42 136.257 20.26C136.257 21.1778 136.14 21.9556 135.907 22.5933C135.674 23.2311 135.362 23.7522 134.974 24.1567C134.585 24.5456 134.141 24.8256 133.644 24.9967C133.146 25.1678 132.632 25.2533 132.104 25.2533H128.837ZM125.174 11.6733V28.3333H132.36C133.636 28.3333 134.74 28.1233 135.674 27.7033C136.622 27.2678 137.408 26.6767 138.03 25.93C138.668 25.1833 139.142 24.2967 139.454 23.27C139.765 22.2433 139.92 21.1233 139.92 19.91C139.92 18.5256 139.726 17.32 139.337 16.2933C138.964 15.2667 138.435 14.4111 137.75 13.7267C137.081 13.0422 136.28 12.5289 135.347 12.1867C134.429 11.8445 133.434 11.6733 132.36 11.6733H125.174Z" fill="#0C0C0C"/>
<path d="M149.538 21.0067H144.148C144.164 20.7733 144.211 20.5089 144.288 20.2133C144.382 19.9178 144.53 19.6378 144.732 19.3733C144.95 19.1089 145.23 18.8911 145.572 18.72C145.93 18.5333 146.373 18.44 146.902 18.44C147.711 18.44 148.31 18.6578 148.698 19.0933C149.103 19.5289 149.383 20.1667 149.538 21.0067ZM144.148 23.1067H152.852C152.914 22.1733 152.836 21.2789 152.618 20.4233C152.401 19.5678 152.043 18.8056 151.545 18.1367C151.063 17.4678 150.441 16.9389 149.678 16.55C148.916 16.1456 148.022 15.9433 146.995 15.9433C146.077 15.9433 145.237 16.1067 144.475 16.4333C143.728 16.76 143.083 17.2111 142.538 17.7867C141.994 18.3467 141.574 19.0156 141.278 19.7933C140.983 20.5711 140.835 21.4111 140.835 22.3133C140.835 23.2467 140.975 24.1022 141.255 24.88C141.551 25.6578 141.963 26.3267 142.492 26.8867C143.021 27.4467 143.666 27.8822 144.428 28.1933C145.191 28.4889 146.046 28.6367 146.995 28.6367C148.364 28.6367 149.531 28.3256 150.495 27.7033C151.46 27.0811 152.175 26.0467 152.642 24.6H149.725C149.616 24.9733 149.321 25.3311 148.838 25.6733C148.356 26 147.781 26.1633 147.112 26.1633C146.178 26.1633 145.463 25.9222 144.965 25.44C144.467 24.9578 144.195 24.18 144.148 23.1067Z" fill="#0C0C0C"/>
<path d="M160.79 28.3333L164.874 16.27H161.584L159.04 24.5067H158.994L156.45 16.27H152.974L157.104 28.3333H160.79Z" fill="#0C0C0C"/>
</svg>
