<svg width="166" height="40" viewBox="0 0 166 40" fill="none" xmlns="http://www.w3.org/2000/svg">
<path d="M9.86024 3.73785L14.1506 19.7498V2.14592C14.4908 2.06653 14.8347 1.99662 15.1819 1.93647V19.7515L20.0075 1.74207C20.3553 1.77355 20.7002 1.81474 21.0421 1.86537L16.1776 20.0199L25.8469 3.2721C26.162 3.41381 26.4722 3.56416 26.7775 3.72284L17.0721 20.5331L30.9278 6.6774C31.1776 6.91363 31.4207 7.15681 31.657 7.40663L17.7992 21.2644L34.6115 11.5578C34.7701 11.8631 34.9204 12.1734 35.0621 12.4884L18.3185 22.1554L36.468 17.2922C36.5186 17.6341 36.5598 17.979 36.5913 18.3268L18.5821 23.1524L36.3966 23.1524C36.3364 23.4996 36.2665 23.8434 36.1871 24.1836L18.5793 24.1836L34.5944 28.4749C34.43 28.7898 34.2566 29.0994 34.0747 29.4032L18.317 25.1809L31.4783 32.7796C31.2291 33.0359 30.9726 33.2848 30.7089 33.5262L17.8025 26.0747L27.5685 35.8408C27.2596 36.0212 26.945 36.1929 26.6249 36.3555L17.0722 26.8028L23.3312 37.6438C22.9885 37.7407 22.6418 37.8278 22.2913 37.905L16.1782 27.3169L19.1256 38.3165C18.8629 38.3277 18.5987 38.3333 18.3333 38.3333C18.2427 38.3333 18.1522 38.3327 18.0619 38.3313L15.1819 27.5829V38.0635C14.8347 38.0033 14.4908 37.9334 14.1506 37.854V27.5847L11.6112 37.0618C11.2873 36.9341 10.968 36.7974 10.6534 36.6521L13.1541 27.3192L8.45972 35.4501C8.1691 35.264 7.88407 35.0699 7.60494 34.8682L12.2625 26.8011L5.73993 33.3237C5.4901 33.0874 5.24692 32.8443 5.01069 32.5945L11.5312 26.074L3.46643 30.7302C3.26464 30.4511 3.07051 30.1661 2.88435 29.8755L11.0192 25.1788L1.68161 27.6808C1.53627 27.3663 1.39958 27.0469 1.27185 26.723L10.749 24.1836L0.479446 24.1836C0.400038 23.8434 0.330103 23.4995 0.269934 23.1524L10.7462 23.1524L0.00193701 20.2734C0.000606518 20.1824 -6.10352e-05 20.0913 -6.10352e-05 20C-6.10352e-05 19.7352 0.00555104 19.4718 0.0166627 19.2098L11.0177 22.1575L0.427957 16.0435C0.505065 15.693 0.592206 15.3462 0.689061 15.0035L11.5344 21.265L1.97772 11.7083C2.14031 11.3883 2.31202 11.0736 2.4925 10.7647L12.2626 20.5348L4.80808 7.62321C5.04946 7.35958 5.29845 7.10302 5.55469 6.8539L13.1548 20.0176L8.93185 4.25746C9.23572 4.07559 9.54529 3.90228 9.86024 3.73785Z" fill="#27DAA4"/>
<path d="M48.2067 28.2576H52.1967V21.3276H60.1533V17.8043H52.1967V14.8409H60.6667V11.3409H48.2067V28.2576Z" fill="#0C0C0C"/>
<path d="M67.4481 18.3176C68.9648 18.3176 70.1781 19.2509 70.1781 21.9343C70.1781 24.5709 69.0114 25.5743 67.4481 25.5743C65.8848 25.5743 64.7181 24.5709 64.7181 21.9343C64.7181 19.2509 65.9314 18.3176 67.4481 18.3176ZM67.4481 15.3309C63.9714 15.3309 60.7981 17.3843 60.7981 21.9343C60.7981 26.4843 63.9714 28.5609 67.4481 28.5609C70.9248 28.5609 74.0981 26.4843 74.0981 21.9343C74.0981 17.3843 70.9248 15.3309 67.4481 15.3309Z" fill="#0C0C0C"/>
<path d="M81.4909 15.3309C77.6876 15.3309 75.0743 17.9209 75.0743 21.9109C75.0743 25.9009 77.3609 28.5609 81.4909 28.5609C84.0109 28.5609 87.0209 27.3709 87.8843 23.6376H84.2909C84.0109 24.8276 83.1476 25.5743 81.7243 25.5743C80.3476 25.5743 78.9943 24.6643 78.9943 21.9343C78.9943 19.2509 80.3476 18.3176 81.7243 18.3176C82.8676 18.3176 83.7776 18.8309 84.1276 20.3009H87.7209C86.9743 16.5209 84.1043 15.3309 81.4909 15.3309Z" fill="#0C0C0C"/>
<path d="M96.9307 20.4176C92.054 20.7909 88.5773 21.7943 88.5773 24.8743C88.5773 27.1609 90.5373 28.5609 92.9173 28.5609C94.714 28.5609 96.2073 28.0709 97.1407 26.7409L97.1873 28.2576H100.967C100.781 27.4643 100.687 25.9943 100.687 24.6176V23.3109L100.734 20.5809C100.804 16.7776 98.7507 15.3076 95.134 15.3076C91.4007 15.3076 89.1607 17.4076 88.974 19.7643H92.5673C92.7307 18.5509 93.5707 17.9209 94.8073 17.9209C96.2073 17.9209 96.9307 18.4343 96.9307 19.9276V20.4176ZM97.024 22.9843C97.024 25.2943 95.8573 25.9476 94.3173 25.9476C93.314 25.9476 92.544 25.4109 92.544 24.5943C92.544 23.2409 94.3407 22.9376 97.024 22.6809V22.9843Z" fill="#0C0C0C"/>
<path d="M106.56 11.3409H102.71V28.2576H106.56V11.3409Z" fill="#0C0C0C"/>
<path d="M109.015 11.3409V28.2576H113.005V22.4009H115.525C119.911 22.4009 123.201 21.3043 123.201 16.8476C123.201 12.4143 119.911 11.3409 115.525 11.3409H109.015ZM115.641 14.7009C117.508 14.7009 118.978 15.0743 118.978 16.8476C118.978 18.6209 117.508 19.0409 115.641 19.0409H113.005V14.7009H115.641Z" fill="#0C0C0C"/>
<path d="M129.965 18.3176C131.482 18.3176 132.695 19.2509 132.695 21.9343C132.695 24.5709 131.528 25.5743 129.965 25.5743C128.402 25.5743 127.235 24.5709 127.235 21.9343C127.235 19.2509 128.448 18.3176 129.965 18.3176ZM129.965 15.3309C126.488 15.3309 123.315 17.3843 123.315 21.9343C123.315 26.4843 126.488 28.5609 129.965 28.5609C133.442 28.5609 136.615 26.4843 136.615 21.9343C136.615 17.3843 133.442 15.3309 129.965 15.3309Z" fill="#0C0C0C"/>
<path d="M138.156 15.7043V28.2576H142.029V15.7043H138.156ZM138.156 11.3409V14.4209H142.006V11.3409H138.156Z" fill="#0C0C0C"/>
<path d="M148.17 15.7043H144.32V28.2576H148.17V21.8176C148.17 19.4843 148.846 18.4109 150.503 18.4109C152.37 18.4109 152.44 19.8809 152.44 21.6776V28.2576H156.29V20.7209C156.29 17.3143 155.286 15.4243 152.066 15.4243C150.083 15.4243 148.73 16.4276 148.17 17.3609V15.7043Z" fill="#0C0C0C"/>
<path d="M158.952 15.7043H156.969V18.4343H158.952V24.7343C158.952 27.6509 160.002 28.2576 163.105 28.2576H165.555V25.4809H164.459C163.175 25.4809 162.802 25.2476 162.802 24.0576V18.4343H165.555V15.7043H162.802V12.2743H158.952V15.7043Z" fill="#0C0C0C"/>
</svg>
