<svg width="136" height="40" viewBox="0 0 136 40" fill="none" xmlns="http://www.w3.org/2000/svg">
<path d="M24.2955 15C24.2955 21.0542 19.3876 25.9621 13.3333 25.9621C7.27911 25.9621 2.37118 21.0542 2.37118 15C2.37118 8.94573 7.27911 4.03781 13.3333 4.03781C19.3876 4.03781 24.2955 8.94573 24.2955 15Z" stroke="#7839EE" stroke-width="4.74237"/>
<path d="M30.9621 24.9998C30.9621 31.0541 26.0542 35.962 20 35.962C13.9457 35.962 9.03781 31.0541 9.03781 24.9998C9.03781 18.9456 13.9457 14.0377 20 14.0377C26.0542 14.0377 30.9621 18.9456 30.9621 24.9998Z" stroke="#7839EE" stroke-width="4.74237"/>
<path d="M43.2916 28.2576H47.0666V10.7576H43.2916V28.2576Z" fill="#0C0C0C"/>
<path d="M48.7229 28.2576H52.2229V21.3576C52.2229 19.7326 53.2979 18.5576 54.8229 18.5576C56.2729 18.5576 57.2479 19.6576 57.2479 21.1826V28.2576H60.7479V20.4076C60.7479 17.5076 58.8979 15.4576 56.0479 15.4576C54.3229 15.4576 52.9229 16.1826 52.2229 17.4076V15.6576H48.7229V28.2576Z" fill="#0C0C0C"/>
<path d="M63.2824 11.9326V15.6576H60.8574V18.5576H63.2824V23.6826C63.2824 26.6076 65.1574 28.2576 68.0574 28.2576H70.1324V25.3326H68.5324C67.4074 25.3326 66.7574 24.7576 66.7574 23.5326V18.5576H70.1324V15.6576H66.7574V11.9326H63.2824Z" fill="#0C0C0C"/>
<path d="M78.9643 23.9826C78.6893 25.0576 77.7643 25.6076 76.3643 25.6076C74.6143 25.6076 73.4893 24.5076 73.2393 22.7326H82.2893C82.3143 22.4576 82.3393 22.0826 82.3393 21.6076C82.3393 18.7326 80.5643 15.4576 76.1143 15.4576C71.8393 15.4576 69.8893 18.7326 69.8893 21.9326C69.8893 25.1076 72.0893 28.4576 76.3643 28.4576C79.4643 28.4576 81.8643 26.7076 82.3643 23.9826H78.9643ZM76.1143 18.0076C77.7893 18.0076 78.7643 19.1326 78.8643 20.5326H73.2893C73.5893 18.7826 74.5393 18.0076 76.1143 18.0076Z" fill="#0C0C0C"/>
<path d="M91.085 18.5576V15.6576H89.66C88.135 15.6576 87.185 16.1826 86.51 17.7576V15.6576H83.01V28.2576H86.51V22.1326C86.51 19.9826 87.285 18.5576 89.01 18.5576H91.085Z" fill="#0C0C0C"/>
<path d="M91.6524 28.2576H95.1274V10.1826H91.6524V28.2576Z" fill="#0C0C0C"/>
<path d="M102.623 28.4576C106.498 28.4576 109.273 25.7076 109.273 21.9576C109.273 18.2076 106.498 15.4576 102.623 15.4576C98.7483 15.4576 95.9733 18.2076 95.9733 21.9576C95.9733 25.7076 98.7483 28.4576 102.623 28.4576ZM102.623 25.4576C100.748 25.4576 99.4733 24.0326 99.4733 21.9576C99.4733 19.8576 100.748 18.4326 102.623 18.4326C104.498 18.4326 105.773 19.8576 105.773 21.9576C105.773 24.0326 104.498 25.4576 102.623 25.4576Z" fill="#0C0C0C"/>
<path d="M115.774 28.4576C119.049 28.4576 121.649 26.3576 122.024 23.5576H118.474C118.224 24.6826 117.199 25.4576 115.924 25.4576C114.024 25.4576 112.899 24.0076 112.899 21.9576C112.899 19.9076 113.999 18.4326 115.874 18.4326C117.149 18.4326 118.224 19.2576 118.424 20.3826H121.924C121.699 17.4576 119.074 15.4576 115.774 15.4576C111.874 15.4576 109.274 18.2826 109.274 21.9576C109.274 25.6326 111.874 28.4576 115.774 28.4576Z" fill="#0C0C0C"/>
<path d="M131.216 28.2576H135.416L129.991 20.6076L135.016 15.6576H130.616L126.241 19.9576V10.1826H122.741V28.2576H126.241V24.3076L127.641 22.9326L131.216 28.2576Z" fill="#0C0C0C"/>
</svg>
