<svg width="139" height="40" viewBox="0 0 139 40" fill="none" xmlns="http://www.w3.org/2000/svg">
<path d="M34.8883 20.2082C34.8883 29.3513 27.4764 36.7632 18.3333 36.7632C9.19029 36.7632 1.77839 29.3513 1.77839 20.2082C1.77839 11.0652 9.19029 3.65327 18.3333 3.65327C27.4764 3.65327 34.8883 11.0652 34.8883 20.2082Z" stroke="#6927DA" stroke-width="3.55678"/>
<path d="M24.7361 26.6111C21.3417 30.0055 17.5142 32.2017 14.1404 33.0693C10.7219 33.9483 8.11772 33.4049 6.62718 31.9144C5.13665 30.4239 4.59326 27.8197 5.47232 24.4012C6.33988 21.0274 8.53607 17.1999 11.9305 13.8055C15.3249 10.4111 19.1524 8.21488 22.5262 7.34732C25.9447 6.46827 28.5489 7.01165 30.0394 8.50219C31.5299 9.99272 32.0733 12.5969 31.1943 16.0154C30.3267 19.3892 28.1305 23.2167 24.7361 26.6111Z" stroke="#6927DA" stroke-width="3.55678"/>
<path d="M24.736 13.8055C28.1304 17.1999 30.3266 21.0274 31.1941 24.4012C32.0732 27.8198 31.5298 30.4239 30.0393 31.9144C28.5488 33.405 25.9446 33.9484 22.5261 33.0693C19.1522 32.2018 15.3248 30.0056 11.9304 26.6111C8.53595 23.2167 6.33975 19.3893 5.4722 16.0154C4.59314 12.5969 5.13653 9.99275 6.62706 8.50222C8.11759 7.01168 10.7217 6.4683 14.1403 7.34735C17.5141 8.21491 21.3416 10.4111 24.736 13.8055Z" stroke="#6927DA" stroke-width="3.55678"/>
<path d="M52.375 28.5333C56.3 28.5333 58.95 26.4833 58.95 23.2083C58.95 16.2833 49.75 19.2333 49.75 15.5833C49.75 14.5583 50.675 13.8583 52.15 13.8583C53.825 13.8583 54.875 14.7583 55 16.1333H58.575C58.475 12.8083 55.925 10.6333 52.15 10.6333C48.6 10.6333 46.1 12.6833 46.1 15.5833C46.1 22.4583 55.175 19.8333 55.175 23.2583C55.175 24.5833 54.05 25.2833 52.375 25.2833C50.525 25.2833 49.35 24.1583 49.2 22.3833H45.6C45.75 26.1083 48.4 28.5333 52.375 28.5333Z" fill="#0C0C0C"/>
<path d="M59.8002 33.4333H63.2752V27.2083C63.9502 28.0583 65.1752 28.5333 66.6002 28.5333C70.2252 28.5333 72.6752 25.9583 72.6752 22.0333C72.6752 18.1083 70.4252 15.5333 66.9002 15.5333C65.2752 15.5333 64.0252 16.1333 63.2752 17.1083V15.7333H59.8002V33.4333ZM66.1752 25.5333C64.3002 25.5333 63.0752 24.1333 63.0752 22.0333C63.0752 19.9083 64.3002 18.5083 66.1752 18.5083C68.0002 18.5083 69.2502 19.9083 69.2502 22.0333C69.2502 24.1333 68.0002 25.5333 66.1752 25.5333Z" fill="#0C0C0C"/>
<path d="M73.516 28.3333H76.991V21.4333C76.991 19.8083 78.066 18.6333 79.591 18.6333C81.041 18.6333 82.041 19.7333 82.041 21.2583V28.3333H85.516V20.4833C85.516 17.5833 83.666 15.5333 80.841 15.5333C79.091 15.5333 77.716 16.2583 76.991 17.4833V10.2583H73.516V28.3333Z" fill="#0C0C0C"/>
<path d="M95.2371 24.0583C94.9621 25.1333 94.0371 25.6833 92.6371 25.6833C90.8871 25.6833 89.7621 24.5833 89.5121 22.8083H98.5621C98.5871 22.5333 98.6121 22.1583 98.6121 21.6833C98.6121 18.8083 96.8371 15.5333 92.3871 15.5333C88.1121 15.5333 86.1621 18.8083 86.1621 22.0083C86.1621 25.1833 88.3621 28.5333 92.6371 28.5333C95.7371 28.5333 98.1371 26.7833 98.6371 24.0583H95.2371ZM92.3871 18.0833C94.0621 18.0833 95.0371 19.2083 95.1371 20.6083H89.5621C89.8621 18.8583 90.8121 18.0833 92.3871 18.0833Z" fill="#0C0C0C"/>
<path d="M107.726 18.6333V15.7333H105.933C104.408 15.7333 103.458 16.2583 102.783 17.8333V15.7333H99.2828V28.3333H102.783V22.2083C102.783 20.0583 103.558 18.6333 105.283 18.6333H107.726Z" fill="#0C0C0C"/>
<path d="M119.726 15.7333H116.226V22.6333C116.226 24.2333 115.151 25.4333 113.626 25.4333C112.201 25.4333 111.201 24.3333 111.201 22.8083V15.7333H107.726V23.5833C107.726 26.4583 109.576 28.5333 112.401 28.5333C114.126 28.5333 115.526 27.7833 116.226 26.5833V28.3333H119.726V15.7333Z" fill="#0C0C0C"/>
<path d="M121.226 28.3333H124.701V10.2583H121.226V28.3333Z" fill="#0C0C0C"/>
<path d="M134.622 24.0583C134.347 25.1333 133.422 25.6833 132.022 25.6833C130.272 25.6833 129.147 24.5833 128.897 22.8083H137.947C137.972 22.5333 137.997 22.1583 137.997 21.6833C137.997 18.8083 136.222 15.5333 131.772 15.5333C127.497 15.5333 125.547 18.8083 125.547 22.0083C125.547 25.1833 127.747 28.5333 132.022 28.5333C135.122 28.5333 137.522 26.7833 138.022 24.0583H134.622ZM131.772 18.0833C133.447 18.0833 134.422 19.2083 134.522 20.6083H128.947C129.247 18.8583 130.197 18.0833 131.772 18.0833Z" fill="#0C0C0C"/>
</svg>
