<svg width="19" height="24" viewBox="0 0 19 24" fill="none" xmlns="http://www.w3.org/2000/svg">
<path fill-rule="evenodd" clip-rule="evenodd" d="M14.8948 2.29203C15.0211 2.17432 15.1224 2.03238 15.1927 1.87467C15.263 1.71695 15.3008 1.5467 15.3038 1.37407C15.3069 1.20144 15.2751 1.02996 15.2104 0.869864C15.1458 0.70977 15.0495 0.56434 14.9274 0.442251C14.8054 0.320162 14.6599 0.223914 14.4998 0.159249C14.3397 0.0945846 14.1683 0.062828 13.9956 0.0658739C13.823 0.0689198 13.6527 0.106706 13.495 0.176978C13.3373 0.24725 13.1954 0.348568 13.0777 0.474888L10.5062 3.04632C10.3799 3.16402 10.2786 3.30597 10.2083 3.46368C10.138 3.62139 10.1003 3.79164 10.0972 3.96428C10.0942 4.13691 10.1259 4.30839 10.1906 4.46848C10.2553 4.62858 10.3515 4.77401 10.4736 4.8961C10.5957 5.01819 10.7411 5.11443 10.9012 5.1791C11.0613 5.24376 11.2328 5.27552 11.4054 5.27247C11.578 5.26943 11.7483 5.23164 11.906 5.16137C12.0637 5.0911 12.2057 4.98978 12.3234 4.86346L14.8948 2.29203ZM12.2582 6.44746C13.405 6.22963 14.5912 6.38173 15.6459 6.8818C16.7006 7.38187 17.5691 8.20406 18.1262 9.22974C18.1867 9.34088 18.2219 9.46403 18.2292 9.59036C18.2364 9.71669 18.2156 9.84307 18.1683 9.96041C18.1209 10.0777 18.0481 10.1831 17.9552 10.269C17.8623 10.3549 17.7515 10.4192 17.6308 10.4572C16.9989 10.6568 16.447 11.0523 16.0547 11.5863C15.6624 12.1204 15.4501 12.7654 15.4485 13.428V13.4417C15.4355 14.2013 15.701 14.9392 16.195 15.5163C16.689 16.0934 17.3772 16.4695 18.1297 16.5737C18.2494 16.5902 18.3643 16.6319 18.4668 16.6959C18.5693 16.7599 18.6572 16.8449 18.7245 16.9453C18.7919 17.0457 18.8372 17.1592 18.8576 17.2783C18.878 17.3974 18.8729 17.5195 18.8428 17.6366C18.3363 19.6135 17.3072 21.4177 15.8634 22.86C15.1315 23.5081 14.1942 23.8769 13.2169 23.9014C12.2396 23.9259 11.2851 23.6044 10.5217 22.9937C10.3068 22.8387 10.0483 22.7558 9.7834 22.757C9.51846 22.7583 9.26075 22.8435 9.04737 23.0006C8.24781 23.6038 7.25892 23.9014 6.25923 23.8394C5.25955 23.7775 4.31494 23.3602 3.59595 22.6629C1.73255 20.6907 0.56471 18.1636 0.270232 15.4663C-0.086546 13.4516 0.249411 11.3754 1.22337 9.57603C1.58908 8.85935 2.10003 8.22669 2.72369 7.71834C3.34735 7.21 4.07004 6.83711 4.84574 6.62343C5.62144 6.40975 6.43313 6.35996 7.22913 6.47724C8.02513 6.59452 8.78798 6.87629 9.46909 7.3046C9.57693 7.36447 9.69802 7.39646 9.82136 7.39766C9.9447 7.39885 10.0664 7.36922 10.1754 7.31146C10.8026 6.88277 11.5117 6.58859 12.2582 6.44746Z" fill="white"/>
</svg>
