<svg width="32" height="32" viewBox="0 0 32 32" fill="none" xmlns="http://www.w3.org/2000/svg">
<g clip-path="url(#clip0_1_1187)">
<path fill-rule="evenodd" clip-rule="evenodd" d="M9.46739 2.66742C9.75456 1.91441 10.2637 1.2664 10.9274 0.809233C11.5911 0.352069 12.3781 0.107326 13.184 0.107423H18.8571C19.655 0.106975 20.4345 0.346506 21.0944 0.794891C21.7544 1.24328 22.2642 1.87978 22.5577 2.62171C24.022 3.05826 25.3244 3.91851 26.3006 5.09405C27.2768 6.26959 27.8832 7.7078 28.0434 9.22742L28.4137 12.5966C30.3337 12.7429 31.7943 14.5074 31.5405 16.4411L29.9565 28.3749L29.9405 28.5051C29.9063 28.8023 29.8491 29.2983 29.6617 29.7486C29.4592 30.2295 29.1524 30.6595 28.7634 31.0073C28.3744 31.3552 27.913 31.6123 27.4125 31.76C26.9371 31.8971 26.4525 31.8926 26.1554 31.8903H5.95425C5.49318 31.9148 5.03103 31.8709 4.58282 31.76C4.08276 31.612 3.6218 31.3547 3.23324 31.0069C2.84468 30.6591 2.53821 30.2293 2.33596 29.7486C2.12111 29.232 2.05711 28.6194 2.02054 28.2491C2.01379 28.1828 2.00617 28.1165 1.99768 28.0503L0.486822 16.6697C0.427635 16.3055 0.417641 15.9349 0.457108 15.568C0.564975 14.7842 0.938699 14.0612 1.51577 13.5199C2.09285 12.9786 2.83828 12.6518 3.62739 12.5943L3.99768 9.22514C4.16572 7.71635 4.77391 6.29034 5.7465 5.12469C6.71909 3.95905 8.01311 3.10299 9.46739 2.66742ZM9.81482 6.19885C9.15834 6.51568 8.59297 6.99389 8.17162 7.58873C7.75028 8.18356 7.48675 8.87557 7.40568 9.59999L7.07654 12.5851H24.9645L24.6354 9.59999V9.59085C24.5599 8.86511 24.3014 8.17043 23.884 7.57194C23.4666 6.97345 22.9041 6.49076 22.2491 6.16914C21.8932 6.74912 21.3945 7.2281 20.8006 7.56026C20.2067 7.89241 19.5376 8.06664 18.8571 8.06628H13.184C12.5104 8.06613 11.8479 7.89491 11.2586 7.56868C10.6693 7.24244 10.1725 6.77189 9.81482 6.20114V6.19885ZM9.99082 19.4011C9.99082 19.0223 9.84031 18.6589 9.5724 18.391C9.30449 18.1231 8.94113 17.9726 8.56225 17.9726C8.18337 17.9726 7.82001 18.1231 7.5521 18.391C7.28419 18.6589 7.13368 19.0223 7.13368 19.4011V25.0743C7.13368 25.4532 7.28419 25.8165 7.5521 26.0844C7.82001 26.3523 8.18337 26.5029 8.56225 26.5029C8.94113 26.5029 9.30449 26.3523 9.5724 26.0844C9.84031 25.8165 9.99082 25.4532 9.99082 25.0743V19.4011ZM16.0205 17.9726C16.8091 17.9726 17.4491 18.6126 17.4491 19.4011V25.0743C17.4491 25.4532 17.2986 25.8165 17.0307 26.0844C16.7628 26.3523 16.3994 26.5029 16.0205 26.5029C15.6417 26.5029 15.2783 26.3523 15.0104 26.0844C14.7425 25.8165 14.592 25.4532 14.592 25.0743V19.4011C14.592 18.6126 15.232 17.9726 16.0205 17.9726ZM24.9097 19.4011C24.9097 19.0223 24.7592 18.6589 24.4913 18.391C24.2234 18.1231 23.86 17.9726 23.4811 17.9726C23.1022 17.9726 22.7389 18.1231 22.471 18.391C22.203 18.6589 22.0525 19.0223 22.0525 19.4011V25.0743C22.0525 25.4532 22.203 25.8165 22.471 26.0844C22.7389 26.3523 23.1022 26.5029 23.4811 26.5029C23.86 26.5029 24.2234 26.3523 24.4913 26.0844C24.7592 25.8165 24.9097 25.4532 24.9097 25.0743V19.4011Z" fill="#0C0C0C"/>
</g>
<defs>
<clipPath id="clip0_1_1187">
<rect width="32" height="32" fill="white"/>
</clipPath>
</defs>
</svg>
