<svg width="48" height="48" viewBox="0 0 48 48" fill="none" xmlns="http://www.w3.org/2000/svg">
<path fill-rule="evenodd" clip-rule="evenodd" d="M19.2 4C19.2 1.79086 17.4091 0 15.2 0H13.6C11.3909 0 9.6 1.79086 9.6 4V9.6H4C1.79086 9.6 0 11.3909 0 13.6V34.4C0 36.6091 1.79086 38.4 4 38.4H9.6V44C9.6 46.2091 11.3909 48 13.6 48H15.2C17.4091 48 19.2 46.2091 19.2 44V42.4C19.2 40.1909 17.4091 38.4 15.2 38.4H9.6V9.6H10.4C12.6091 9.6 14.4 11.3909 14.4 13.6V16.8C14.4 18.1255 15.4745 19.2 16.8 19.2C18.1255 19.2 19.2 20.2745 19.2 21.6V26.4C19.2 27.7255 20.2745 28.8 21.6 28.8C22.9255 28.8 24 29.8745 24 31.2V36C24 37.3255 25.0745 38.4 26.4 38.4C27.7255 38.4 28.8 39.4745 28.8 40.8V44C28.8 46.2091 30.5909 48 32.8 48H34.4C36.6091 48 38.4 46.2091 38.4 44V38.4H44C46.2091 38.4 48 36.6091 48 34.4V13.6C48 11.3909 46.2091 9.6 44 9.6H38.4V4C38.4 1.79086 36.6091 0 34.4 0H32.8C30.5909 0 28.8 1.79086 28.8 4V5.6C28.8 7.80914 30.5909 9.6 32.8 9.6H38.4V38.4H37.6C35.3909 38.4 33.6 36.6091 33.6 34.4V31.2C33.6 29.8745 32.5255 28.8 31.2 28.8C29.8745 28.8 28.8 27.7255 28.8 26.4V21.6C28.8 20.2745 27.7255 19.2 26.4 19.2C25.0745 19.2 24 18.1255 24 16.8V12C24 10.6745 22.9255 9.6 21.6 9.6C20.2745 9.6 19.2 8.52549 19.2 7.2V4Z" fill="#FFD266"/>
</svg>
