<svg width="23" height="23" viewBox="0 0 23 23" fill="none" xmlns="http://www.w3.org/2000/svg">
<path fill-rule="evenodd" clip-rule="evenodd" d="M0.103455 2.23716C0.103455 2.1943 0.105169 2.15144 0.108597 2.11201L9.76003 11.7617L0.108597 21.4132C0.105221 21.3715 0.103506 21.3298 0.103455 21.288V2.23716ZM2.26003 22.8977C2.43145 22.8652 2.60288 22.8069 2.77088 22.7229L14.6732 16.6766L11.5772 13.5806L2.26003 22.8977ZM13.396 11.7617L17.0852 15.4509L21.5183 13.1983C22.7509 12.5726 22.7509 10.9526 21.5183 10.3269L17.0835 8.0743L13.396 11.7617ZM14.6732 6.84858L2.77088 0.802299C2.60967 0.720282 2.43769 0.661417 2.26003 0.627441L11.5772 9.94287L14.6732 6.84858Z" fill="white"/>
</svg>
