<svg width="32" height="32" viewBox="0 0 32 32" fill="#fff" xmlns="http://www.w3.org/2000/svg">
<path fill-rule="evenodd" clip-rule="evenodd" d="M4.33833 24.6353C3.90944 25.0642 3.32774 25.3051 2.72119 25.3051C2.11464 25.3051 1.53294 25.0642 1.10405 24.6353C0.675154 24.2064 0.434204 23.6247 0.434204 23.0182C0.434204 22.4116 0.675154 21.8299 1.10405 21.401L8.72233 13.785L8.73833 13.769C9.36078 13.1594 10.1974 12.8179 11.0686 12.8179C11.9399 12.8179 12.7765 13.1594 13.3989 13.769L13.4149 13.785L17.3029 17.673L22.6675 11.9999L20.2903 9.62274C20.0509 9.38299 19.8879 9.07767 19.8218 8.74533C19.7558 8.41299 19.7898 8.06854 19.9194 7.75548C20.049 7.44242 20.2685 7.1748 20.5501 6.98641C20.8318 6.79802 21.1629 6.69732 21.5018 6.69702H29.8492C30.3038 6.69702 30.7399 6.87763 31.0614 7.19912C31.3829 7.52061 31.5635 7.95665 31.5635 8.41131V16.7587C31.5632 17.0976 31.4625 17.4287 31.2741 17.7104C31.0857 17.992 30.8181 18.2115 30.505 18.3411C30.192 18.4707 29.8475 18.5047 29.5152 18.4387C29.1828 18.3726 28.8775 18.2096 28.6378 17.9702L25.9018 15.2319L19.7212 21.7713C19.4158 22.0865 19.0511 22.3383 18.6481 22.512C18.2451 22.6858 17.8117 22.7783 17.3729 22.784C16.934 22.7897 16.4984 22.7087 16.091 22.5455C15.6836 22.3823 15.3124 22.1401 14.9989 21.833L14.9829 21.817L11.0675 17.9039L4.33833 24.6353Z" fill="#fff"/>
</svg>
